<?xml version="1.0" encoding="utf-8"?>
<svg version="1.1" xmlns:xlink="http://www.w3.org/1999/xlink" width="716px" height="100px" xmlns="http://www.w3.org/2000/svg">
  <defs>
    <linearGradient gradientUnits="userSpaceOnUse" x1="2418" y1="975" x2="2418" y2="1065" id="LinearGradient15">
      <stop id="Stop16" stop-color="#7f7f7f" offset="0" />
      <stop id="Stop17" stop-color="#ff0000" stop-opacity="0" offset="0" />
    </linearGradient>
    <filter x="2065px" y="975px" width="716px" height="100px" filterUnits="userSpaceOnUse" id="filter18">
      <feOffset dx="5" dy="5" in="SourceAlpha" result="shadowOffsetInner" />
      <feGaussianBlur stdDeviation="2.5" in="shadowOffsetInner" result="shadowGaussian" />
      <feComposite in2="shadowGaussian" operator="atop" in="SourceAlpha" result="shadowComposite" />
      <feColorMatrix type="matrix" values="0 0 0 0 0  0 0 0 0 0  0 0 0 0 0  0 0 0 0.349019607843137 0  " in="shadowComposite" />
    </filter>
    <g id="widget19">
      <path d="M 2065.5 1020  A 44.5 44.5 0 0 1 2110 975.5 L 2726 975.5  A 44.5 44.5 0 0 1 2770.5 1020 A 44.5 44.5 0 0 1 2726 1064.5 L 2110 1064.5  A 44.5 44.5 0 0 1 2065.5 1020 Z " fill-rule="nonzero" fill="url(#LinearGradient15)" stroke="none" />
      <path d="M 2065.5 1020  A 44.5 44.5 0 0 1 2110 975.5 L 2726 975.5  A 44.5 44.5 0 0 1 2770.5 1020 A 44.5 44.5 0 0 1 2726 1064.5 L 2110 1064.5  A 44.5 44.5 0 0 1 2065.5 1020 Z " stroke-width="1" stroke="#000000" fill="none" />
    </g>
  </defs>
  <g transform="matrix(1 0 0 1 -2065 -975 )">
    <use xlink:href="#widget19" filter="url(#filter18)" />
    <use xlink:href="#widget19" />
  </g>
</svg>