<?xml version="1.0" encoding="utf-8"?>
<svg version="1.1" xmlns:xlink="http://www.w3.org/1999/xlink" width="30px" height="17px" xmlns="http://www.w3.org/2000/svg">
  <g transform="matrix(1 0 0 1 -1909 -339 )">
    <path d="M 20 13.6  L 3.33333333333326 13.6  L 3.33333333333326 3.40000000000001  L 20 3.40000000000001  L 20 13.6  Z M 28.3333333333334 2.125  L 28.3333333333334 4.25  C 28.7934027777778 4.25  29.1861979166667 4.416015625  29.51171875 4.748046875  C 29.8372395833334 5.080078125  30 5.48072916666666  30 5.94999999999999  L 30 11.05  C 30 11.5192708333333  29.8372395833334 11.919921875  29.51171875 12.251953125  C 29.1861979166667 12.583984375  28.7934027777778 12.75  28.3333333333334 12.75  L 28.3333333333334 14.875  C 28.3333333333334 15.459375  28.1293402777777 15.9596354166667  27.7213541666667 16.37578125  C 27.3133680555555 16.7919270833333  26.8229166666666 17  26.25 17  L 2.08333333333337 17  C 1.51041666666663 17  1.01996527777783 16.7919270833333  0.611979166666629 16.37578125  C 0.203993055555543 15.9596354166667  0 15.459375  0 14.875  L 0 2.125  C 0 1.54062500000001  0.203993055555543 1.04036458333333  0.611979166666629 0.624218749999997  C 1.01996527777783 0.208072916666666  1.51041666666663 0  2.08333333333337 0  L 26.25 0  C 26.8229166666666 0  27.3133680555555 0.208072916666666  27.7213541666667 0.624218749999997  C 28.1293402777777 1.04036458333333  28.3333333333334 1.54062500000001  28.3333333333334 2.125  Z M 26.6666666666667 11.05  L 28.3333333333334 11.05  L 28.3333333333334 5.94999999999999  L 26.6666666666667 5.94999999999999  L 26.6666666666667 2.125  C 26.6666666666667 2.00104166666667  26.6276041666666 1.89921874999999  26.5494791666667 1.81953125000001  C 26.4713541666666 1.73984375000001  26.3715277777777 1.69999999999999  26.25 2  L 2.08333333333337 2  C 1.96180555555554 1.69999999999999  1.86197916666663 1.73984375000001  1.78385416666663 1.81953125000001  C 1.70572916666674 1.89921874999999  1.66666666666663 2.00104166666667  2 2.125  L 2 14.875  C 1.66666666666663 14.9989583333333  1.70572916666674 15.10078125  1.78385416666663 15.18046875  C 1.86197916666663 15.26015625  1.96180555555554 15.3  2.08333333333337 15  L 26.25 15  C 26.3715277777777 15.3  26.4713541666666 15.26015625  26.5494791666667 15.18046875  C 26.6276041666666 15.10078125  26.6666666666667 14.9989583333333  26.6666666666667 14.875  L 26.6666666666667 11.05  Z " fill-rule="nonzero" fill="#333333" stroke="none" transform="matrix(1 0 0 1 1909 339 )" />
  </g>
</svg>