<?xml version="1.0" encoding="utf-8"?>
<svg version="1.1" xmlns:xlink="http://www.w3.org/1999/xlink" width="23px" height="17px" xmlns="http://www.w3.org/2000/svg">
  <g transform="matrix(1 0 0 1 -1868 -339 )">
    <path d="M 12.5891038696537 16.1043010752688  C 12.0191785471826 16.7014336917563  11.6561439239647 17  11.5 17  C 11.3438560760353 17  10.9808214528174 16.7014336917563  10.4108961303463 16.1043010752688  C 9.84097080787512 15.5071684587814  9.55600814663956 15.1273596176822  9.55600814663956 14.9648745519713  C 9.55600814663956 14.7048984468339  9.7999830278344 14.4855436081243  10.2879327902241 14.3068100358423  C 10.7758825526138 14.1280764635603  11.1799049558724 14.0387096774194  11.5 14.0387096774194  C 11.8200950441276 14.0387096774194  12.2241174473862 14.1280764635603  12.7120672097759 14.3068100358423  C 13.2000169721656 14.4855436081243  13.4439918533604 14.7048984468339  13.4439918533604 14.9648745519713  C 13.4439918533604 15.1273596176822  13.1590291921249 15.5071684587814  12.5891038696537 16.1043010752688  Z M 15.7568737270876 12.7835125448029  C 15.1674304141209 13.3928315412186  14.8024439918534 13.6974910394265  14.6619144602852 13.6974910394265  C 14.6463000678887 13.6974910394265  14.490156143924 13.5959378733572  14.193482688391 13.3928315412186  C 13.8968092328581 13.1897252090801  13.5005940257977 12.9866188769415  13.0048370672098 12.7835125448029  C 12.5090801086218 12.5804062126643  12.0074677528853 12.478853046595  11.5 12.478853046595  C 10.9925322471147 12.478853046595  10.4909198913782 12.5804062126643  9.99516293279021 12.7835125448029  C 9.49940597420232 12.9866188769415  9.10514256619138 13.1897252090801  8.81237270875761 13.3928315412186  C 8.51960285132384 13.5959378733572  8.36150712830954 13.6974910394265  8.33808553971483 13.6974910394265  C 8.19755600814665 13.6974910394265  7.83256958587913 13.3928315412186  7.24312627291238 12.7835125448029  C 6.65368295994563 12.1741935483871  6.35896130346237 11.7964157706093  6.35896130346237 11.6501792114695  C 6.35896130346237 11.5445639187575  6.39799728445348 11.4511350059737  6.47606924643583 11.3698924731183  C 7.08503054989819 10.7443249701314  7.85013577732514 10.252807646356  8.77138492871688 9.89534050179211  C 9.69263408010863 9.53787335722819  10.6021724372031 9.35913978494624  11.5 9.35913978494624  C 12.3978275627969 9.35913978494624  13.3073659198914 9.53787335722819  14.2286150712831 9.89534050179211  C 15.1498642226749 10.252807646356  15.9149694501018 10.7443249701314  16.5239307535642 11.3698924731183  C 16.6020027155465 11.4511350059737  16.6410386965376 11.5445639187575  16.6410386965376 11.6501792114695  C 16.6410386965376 11.7964157706093  16.3463170400544 12.1741935483871  15.7568737270876 12.7835125448029  Z M 18.9363543788188 9.46881720430108  C 18.350814663951 10.0781362007168  17.9916836388323 10.3827956989247  17.8589613034624 10.3827956989247  C 17.7730821452817 10.3827956989247  17.6832993890021 10.3502986857825  17.5896130346233 10.2853046594982  C 16.5278343516633 9.43225806451613  15.5441276306857 8.80465949820788  14.6384928716905 8.40250896057347  C 13.7328581126952 8.00035842293907  12.6866938221317 7.79928315412187  11.5 7.79928315412187  C 10.83638832315 7.79928315412187  10.1708248472505 7.88864994026284  9.50330957230142 8.06738351254481  C 8.83579429735232 8.24611708482675  8.25415818058389 8.46140979689366  7.75840122199588 8.71326164874552  C 7.26264426340799 8.96511350059737  6.81958587915824 9.21696535244922  6.4292260692464 9.46881720430108  C 6.03886625933467 9.72066905615293  5.73048200950439 9.93596176821983  5.50407331975555 10.1146953405018  C 5.27766463000671 10.2934289127838  5.15665308893415 10.3827956989247  5.14103869653763 10.3827956989247  C 5.00831636116766 10.3827956989247  4.64918533604896 10.0781362007168  4.06364562118119 9.46881720430108  C 3.47810590631366 8.85949820788531  3.18533604887989 8.48172043010752  3.18533604887989 8.33548387096774  C 3.18533604887989 8.23799283154122  3.22437202987101 8.14862604540025  3.30244399185335 8.06738351254481  C 4.33299389002036 6.99498207885306  5.58214528173801 6.16224611708483  7.04989816700606 5.56917562724014  C 8.51765105227423 4.97610513739545  10.0010183299389 4.67956989247311  11.5 4.67956989247311  C 12.9989816700611 4.67956989247311  14.4823489477258 4.97610513739545  15.9501018329939 5.56917562724014  C 17.417854718262 6.16224611708483  18.6670061099796 6.99498207885306  19.6975560081466 8.06738351254481  C 19.775627970129 8.14862604540025  19.8146639511201 8.23799283154122  19.8146639511201 8.33548387096774  C 19.8146639511201 8.48172043010752  19.5218940936863 8.85949820788531  18.9363543788188 9.46881720430108  Z M 22.1158350305499 6.1663082437276  C 21.5263917175832 6.77562724014336  21.1653088934148 7.08028673835125  21.0325865580448 7.08028673835125  C 20.9467073998643 7.08028673835125  20.8608282416836 7.04372759856631  20.7749490835031 6.97060931899642  C 19.3774609640191 5.69510155316607  17.9272742701968 4.73440860215054  16.4243890020366 4.08853046594982  C 14.9215037338764 3.44265232974911  13.2800407331976 3.11971326164876  11.5 3.11971326164876  C 9.71995926680245 3.11971326164876  8.07849626612358 3.44265232974911  6.57561099796339 4.08853046594982  C 5.07272572980321 4.73440860215054  3.62253903598094 5.69510155316607  2.22505091649691 6.97060931899642  C 2.13917175831637 7.04372759856631  2.05329260013571 7.08028673835125  1.96741344195516 7.08028673835125  C 1.83469110658518 7.08028673835125  1.47360828241676 6.77562724014336  0.884164969450126 6.1663082437276  C 0.294721656483375 5.55698924731183  0 5.17921146953405  0 5.03297491039426  C 0 4.9273596176822  0.039035980991116 4.83393070489845  0.117107942973576 4.75268817204301  C 1.57705363204343 3.2415770609319  3.31415478615065 2.07168458781362  5.32841140529536 1.24301075268818  C 7.34266802443994 0.414336917562721  9.39986422267486 0  11.5 0  C 13.6001357773251 0  15.6573319755601 0.414336917562721  17.6715885947046 1.24301075268818  C 19.6858452138493 2.07168458781362  21.4229463679566 3.2415770609319  22.8828920570264 4.75268817204301  C 22.9609640190089 4.83393070489845  23 4.9273596176822  23 5.03297491039426  C 23 5.17921146953405  22.7052783435166 5.55698924731183  22.1158350305499 6.1663082437276  Z " fill-rule="nonzero" fill="#333333" stroke="none" transform="matrix(1 0 0 1 1868 339 )" />
  </g>
</svg>