<?xml version="1.0" encoding="utf-8"?>
<svg version="1.1" xmlns:xlink="http://www.w3.org/1999/xlink" width="17px" height="10px" xmlns="http://www.w3.org/2000/svg">
  <g transform="matrix(1 0 0 1 -1229 -407 )">
    <path d="M 16.8296593186373 1.03092783505154  C 16.943219772879 1.14547537227949  17 1.27720504009163  17 1.42611683848797  C 17 1.57502863688431  16.943219772879 1.70675830469645  16.8296593186373 1.8213058419244  L 8.89178356713433 9.82817869415808  C 8.77822311289242 9.94272623138602  8.64762859051439 10  8.5 10  C 8.35237140948561 10  8.22177688710758 9.94272623138602  8.10821643286567 9.82817869415808  L 0.170340681362745 1.8213058419244  C 0.056780227120953 1.70675830469645  0 1.57502863688431  0 1.42611683848797  C 0 1.27720504009163  0.056780227120953 1.14547537227949  0.170340681362745 1.03092783505154  L 1.02204408817636 0.171821305841931  C 1.13560454241815 0.0572737686139675  1.2661990647963 0  1.41382765531057 0  C 1.56145624582496 0  1.6920507682031 0.0572737686139675  1.8056112224449 0.171821305841931  L 8.5 6.92439862542955  L 15.1943887775551 0.171821305841931  C 15.3079492317969 0.0572737686139675  15.438543754175 0  15.5861723446894 0  C 15.7338009352037 0  15.8643954575818 0.0572737686139675  15.9779559118236 0.171821305841931  L 16.8296593186373 1.03092783505154  Z " fill-rule="nonzero" fill="#333333" stroke="none" transform="matrix(1 0 0 1 1229 407 )" />
  </g>
</svg>