<svg xmlns="http://www.w3.org/2000/svg" viewBox="0 0 90 90">
  <defs>
    <style>
      .cls-1 {
        fill: none;
      }

      .cls-2 {
        fill: #fff;
      }
    </style>
  </defs>
  <g id="f6-5-white" transform="translate(-5244 -2035)">
    <rect id="Rectangle_3333" data-name="Rectangle 3333" class="cls-1" width="90" height="90" transform="translate(5244 2035)"/>
    <path id="Union_41" data-name="Union 41" class="cls-2" d="M-8492.129-2116.652l-7.734-7.731-7.734,7.731a1.075,1.075,0,0,1-.755.313,1.107,1.107,0,0,1-.766-.312,1.074,1.074,0,0,1,0-1.518l7.735-7.733-7.735-7.731a1.077,1.077,0,0,1,0-1.521,1.073,1.073,0,0,1,1.521,0l7.734,7.732,7.734-7.732a1.074,1.074,0,0,1,1.521,0,1.079,1.079,0,0,1,0,1.521l-7.734,7.731,7.734,7.733a1.076,1.076,0,0,1,0,1.518,1.078,1.078,0,0,1-.758.313A1.1,1.1,0,0,1-8492.129-2116.652Zm-31.864-10.475a4.958,4.958,0,0,1,4.959-4.957,4.957,4.957,0,0,1,4.958,4.957,4.958,4.958,0,0,1-4.958,4.958A4.958,4.958,0,0,1-8523.993-2127.126Zm2.157,0a2.81,2.81,0,0,0,2.8,2.8,2.811,2.811,0,0,0,2.8-2.8,2.8,2.8,0,0,0-2.8-2.8A2.809,2.809,0,0,0-8521.836-2127.126ZM-8557-2137.8a15.656,15.656,0,0,1,15.642-15.638,15.666,15.666,0,0,1,15.383,12.806c10.771-3.4,18.29-9.436,22.354-17.958a28.626,28.626,0,0,0,2.933-12.166v-26.552l-12.721,12.715a1.091,1.091,0,0,1-.774.324,1.109,1.109,0,0,1-.766-.312,1.077,1.077,0,0,1,0-1.521l14.54-14.536a1.074,1.074,0,0,1,.8-.356,1.08,1.08,0,0,1,.906.5l13.926,13.9a1.073,1.073,0,0,1,0,1.518,1.072,1.072,0,0,1-1.521,0l-12.234-12.23v26.51c.013.193.656,23.762-27.2,32.352q.015.323.015.648a15.657,15.657,0,0,1-15.64,15.636A15.656,15.656,0,0,1-8557-2137.8Zm2.155.009a13.5,13.5,0,0,0,13.486,13.483,13.5,13.5,0,0,0,13.483-13.483,13.493,13.493,0,0,0-13.483-13.48A13.5,13.5,0,0,0-8554.844-2137.8Zm71.62,6.79a4.959,4.959,0,0,1,4.956-4.957,4.958,4.958,0,0,1,4.96,4.957,4.95,4.95,0,0,1-4.96,4.957A4.958,4.958,0,0,1-8483.224-2131.005Zm2.154,0a2.812,2.812,0,0,0,2.8,2.8,2.81,2.81,0,0,0,2.8-2.8,2.8,2.8,0,0,0-2.8-2.8A2.812,2.812,0,0,0-8481.069-2131.005Zm-20.6-16.5a4.958,4.958,0,0,1,4.957-4.958,4.959,4.959,0,0,1,4.959,4.958,4.96,4.96,0,0,1-4.959,4.958A4.959,4.959,0,0,1-8501.667-2147.5Zm2.153,0a2.81,2.81,0,0,0,2.8,2.8,2.809,2.809,0,0,0,2.8-2.8,2.8,2.8,0,0,0-2.8-2.8A2.812,2.812,0,0,0-8499.514-2147.5Zm30.68-1.176-7.734-7.733-7.736,7.733a1.045,1.045,0,0,1-.752.313,1.106,1.106,0,0,1-.768-.312,1.072,1.072,0,0,1,0-1.518l7.737-7.733-7.737-7.733a1.072,1.072,0,0,1,0-1.518,1.071,1.071,0,0,1,1.52,0l7.736,7.733,7.734-7.733a1.071,1.071,0,0,1,1.52,0,1.07,1.07,0,0,1,0,1.518l-7.736,7.733,7.736,7.733a1.07,1.07,0,0,1,0,1.518,1.055,1.055,0,0,1-.755.313A1.1,1.1,0,0,1-8468.834-2148.68Zm-58.244-11.65-7.731-7.73-7.732,7.73a1.084,1.084,0,0,1-.758.315,1.1,1.1,0,0,1-.765-.315,1.07,1.07,0,0,1,0-1.518l7.734-7.733-7.734-7.731a1.073,1.073,0,0,1,0-1.521,1.079,1.079,0,0,1,1.522,0l7.732,7.732,7.731-7.732a1.079,1.079,0,0,1,1.522,0,1.075,1.075,0,0,1,0,1.521l-7.734,7.731,7.734,7.733a1.072,1.072,0,0,1,0,1.518,1.079,1.079,0,0,1-.755.315A1.112,1.112,0,0,1-8527.078-2160.33Zm41.913-16.283a4.96,4.96,0,0,1,4.958-4.958,4.96,4.96,0,0,1,4.958,4.958,4.957,4.957,0,0,1-4.958,4.957A4.958,4.958,0,0,1-8485.165-2176.613Zm2.155-.01a2.809,2.809,0,0,0,2.8,2.8,2.809,2.809,0,0,0,2.8-2.8,2.8,2.8,0,0,0-2.8-2.8A2.812,2.812,0,0,0-8483.01-2176.623Z" transform="translate(13800.999 4238.999)"/>
  </g>
</svg>
