<svg xmlns="http://www.w3.org/2000/svg" xmlns:xlink="http://www.w3.org/1999/xlink" viewBox="0 0 90 90">
  <defs>
    <style>
      .cls-1 {
        fill: none;
      }

      .cls-2 {
        fill: url(#linear-gradient);
      }
    </style>
    <linearGradient id="linear-gradient" x2="0.776" y2="0.855" gradientUnits="objectBoundingBox">
      <stop offset="0" stop-color="#ffd200"/>
      <stop offset="1" stop-color="#ff2e3a"/>
    </linearGradient>
  </defs>
  <g id="f6-6-color" transform="translate(-5348 -2033)">
    <rect id="Rectangle_3334" data-name="Rectangle 3334" class="cls-1" width="90" height="90" transform="translate(5348 2033)"/>
    <path id="Union_42" data-name="Union 42" class="cls-2" d="M-8529.342-2111a8.718,8.718,0,0,1-8.7-8.706v-5.509a1.041,1.041,0,0,1-.012-.157,1.088,1.088,0,0,1,.012-.16v-9.189a1.129,1.129,0,0,1,1.127-1.127,1.131,1.131,0,0,1,1.131,1.127v8.219h44.986v-8.219a1.132,1.132,0,0,1,1.13-1.127,1.133,1.133,0,0,1,1.131,1.127v15.015a8.727,8.727,0,0,1-8.707,8.706Zm-6.446-8.706a6.451,6.451,0,0,0,6.446,6.446h32.094a6.45,6.45,0,0,0,6.446-6.446v-4.539h-44.986Zm18.853,1.176a1.134,1.134,0,0,1-1.129-1.13,1.134,1.134,0,0,1,1.129-1.13h6.751a1.132,1.132,0,0,1,1.128,1.13,1.132,1.132,0,0,1-1.128,1.13Zm-14.621-12.025v-52.958a1.135,1.135,0,0,1,1.131-1.129h33.744a1.133,1.133,0,0,1,1.129,1.129v52.958a1.121,1.121,0,0,1-1.129,1.118,1.133,1.133,0,0,1-1.131-1.127v-51.817h-31.482v51.827a1.134,1.134,0,0,1-1.131,1.13A1.133,1.133,0,0,1-8531.557-2130.556Zm43.093-7.043a1.127,1.127,0,0,1-.464-1.525l11.167-20.93-4.37-2.325a1.126,1.126,0,0,1-.464-1.525,1.123,1.123,0,0,1,1.524-.463l5.364,2.856a1.161,1.161,0,0,1,.553.667,1.141,1.141,0,0,1-.079.857l-11.7,21.937a1.161,1.161,0,0,1-1,.587A1.134,1.134,0,0,1-8488.464-2137.6Zm-3.726.1a1.131,1.131,0,0,1-.835-1.368l7.574-31.338-7.969-1.93a1.134,1.134,0,0,1-.838-1.368,1.132,1.132,0,0,1,1.369-.833l9.063,2.189a1.133,1.133,0,0,1,.838,1.365l-7.836,32.434a1.124,1.124,0,0,1-1.1.883A1.16,1.16,0,0,1-8492.189-2137.5Zm-42.954-.824-7.836-32.434a1.176,1.176,0,0,1,.135-.871,1.125,1.125,0,0,1,.711-.507l8.039-1.75a1.114,1.114,0,0,1,1.343.858,1.125,1.125,0,0,1-.858,1.343l-6.909,1.5,7.565,31.316a1.134,1.134,0,0,1-.838,1.368.669.669,0,0,1-.257.034A1.133,1.133,0,0,1-8535.144-2138.321Zm-3.883.259-11.7-21.937a1.136,1.136,0,0,1-.076-.855,1.1,1.1,0,0,1,.552-.667l5.363-2.856a1.132,1.132,0,0,1,1.525.463,1.12,1.12,0,0,1-.464,1.522l-4.369,2.325,11.165,20.933a1.12,1.12,0,0,1-.463,1.522.978.978,0,0,1-.544.148A1.11,1.11,0,0,1-8539.026-2138.062Zm20.7-13.23a1.124,1.124,0,0,1-.713-1.423l4.674-14.021a1.128,1.128,0,0,1,1.071-.769,1.142,1.142,0,0,1,1.075.769l4.671,14.021a1.13,1.13,0,0,1-.71,1.423,1.727,1.727,0,0,1-.374.056,1.12,1.12,0,0,1-1.07-.769l-1.647-4.943h-3.909L-8516.9-2152a1.124,1.124,0,0,1-1.065.772A1.092,1.092,0,0,1-8518.322-2151.292Zm6.223-7.917-1.2-3.6-1.2,3.6Zm-11.7-12.982-2.02-2.6a1.129,1.129,0,0,1,0-1.387l2.02-2.6a1.164,1.164,0,0,1,1.784,0l2.022,2.6a1.137,1.137,0,0,1,0,1.387l-2.022,2.6a1.11,1.11,0,0,1-.891.441A1.11,1.11,0,0,1-8523.8-2172.19Zm.3-3.285.589.756.586-.756-.586-.756Zm44.729-.473a1.128,1.128,0,0,1-.068-1.593l6.231-6.75a1.124,1.124,0,0,1,1.592-.067,1.136,1.136,0,0,1,.069,1.59l-6.234,6.752a1.042,1.042,0,0,1-.824.371A1.113,1.113,0,0,1-8478.766-2175.949Zm-72.748-.067-5.193-5.712a1.126,1.126,0,0,1,.077-1.593,1.128,1.128,0,0,1,1.593.08l5.194,5.712a1.125,1.125,0,0,1-.081,1.59,1.077,1.077,0,0,1-.756.294A1.128,1.128,0,0,1-8551.514-2176.016Zm13.456-1.785v-14.5a8.715,8.715,0,0,1,8.7-8.7h32.1a8.715,8.715,0,0,1,8.7,8.7v14.5a1.117,1.117,0,0,1-1.131,1.118,1.133,1.133,0,0,1-1.129-1.129v-11.323H-8535.8v11.334a1.134,1.134,0,0,1-1.131,1.13A1.131,1.131,0,0,1-8538.058-2177.8Zm2.257-14.5v.9h44.987v-.9a6.451,6.451,0,0,0-6.443-6.446h-32.1A6.453,6.453,0,0,0-8535.8-2192.3Zm51.04,9.778a1.124,1.124,0,0,1-.464-1.525l3.637-6.75a1.122,1.122,0,0,1,1.524-.463,1.124,1.124,0,0,1,.462,1.522l-3.637,6.752a1.115,1.115,0,0,1-.993.6A1.138,1.138,0,0,1-8484.761-2182.519Zm-60.714-.521-3.635-7.787a1.13,1.13,0,0,1,.542-1.5,1.136,1.136,0,0,1,1.5.542l3.635,7.79a1.13,1.13,0,0,1-.544,1.5,1.028,1.028,0,0,1-.472.114A1.123,1.123,0,0,1-8545.475-2183.04Z" transform="translate(13907 4234)"/>
  </g>
</svg>
